<svg width="17" height="17" viewBox="0 0 17 17" fill="none" xmlns="http://www.w3.org/2000/svg">
<mask id="mask0_1804_13064" style="mask-type:alpha" maskUnits="userSpaceOnUse" x="0" y="0" width="17" height="17">
<path fill-rule="evenodd" clip-rule="evenodd" d="M0 0H17V17H0V0Z" fill="white"/>
</mask>
<g mask="url(#mask0_1804_13064)">
<path fill-rule="evenodd" clip-rule="evenodd" d="M16.19 0.810293C15.1096 -0.270098 13.3535 -0.270098 12.2731 0.810293L1.17769 11.9054C1.17192 11.9115 1.16885 11.9177 1.16423 11.9234C1.15846 11.9311 1.15231 11.9384 1.14615 11.9461C1.13 11.97 1.11769 11.9942 1.10885 12.0196C1.10577 12.0288 1.10115 12.0346 1.09962 12.0438C1.09808 12.0469 1.09692 12.0496 1.09538 12.0527L0.00769231 16.6215C0.00307692 16.6427 0.00153846 16.6635 0.00153846 16.6831C0.00153846 16.6877 0 16.6923 0 16.695C0 16.7312 0.00769231 16.7642 0.0196154 16.7973C0.0226923 16.805 0.0253846 16.8123 0.0284615 16.82C0.0434615 16.8531 0.0630769 16.8846 0.09 16.91C0.118846 16.94 0.153077 16.9627 0.190769 16.9777C0.228462 16.9927 0.267308 17 0.306538 17C0.330385 17 0.354615 16.9988 0.378462 16.9927L4.94731 15.905C4.95654 15.9035 4.96231 15.8988 4.97154 15.8958C4.98192 15.8931 4.99115 15.8885 5.00154 15.8838C5.02385 15.8735 5.04346 15.8611 5.06308 15.8461C5.07077 15.8404 5.07808 15.8358 5.08577 15.8296C5.08846 15.8269 5.09154 15.8254 5.09308 15.8223L16.19 4.72685C17.27 3.64685 17.27 1.88876 16.19 0.810293ZM15.7561 1.24453C16.5207 2.01069 16.5868 3.21416 15.9557 4.05685L12.9434 1.04453C13.788 0.41337 14.9899 0.479525 15.7561 1.24453ZM14.2323 5.81455L11.1854 2.768L11.6212 2.33376L14.6665 5.37916L14.2323 5.81455ZM1.52627 15.4738C1.40588 15.3535 1.21204 15.3535 1.0905 15.4738L0.857422 15.7065L1.64319 12.4058L3.00434 12.2542L2.83011 13.83C2.82858 13.8419 2.83319 13.8527 2.83319 13.8646C2.83319 13.8765 2.82858 13.8873 2.83011 13.8977C2.83011 13.9081 2.83627 13.9173 2.83781 13.9261C2.84242 13.9442 2.84665 13.9608 2.85434 13.9773C2.86165 13.9969 2.87088 14.015 2.88281 14.0331C2.89204 14.0481 2.90242 14.06 2.91281 14.0719C2.92781 14.0885 2.94434 14.1004 2.96242 14.1142C2.97588 14.1231 2.98934 14.1319 3.00434 14.1396C3.02396 14.1485 3.04665 14.1546 3.06781 14.1592C3.07973 14.1623 3.08858 14.1681 3.1005 14.1696C3.11281 14.1711 3.12319 14.1727 3.13511 14.1727H3.13665C3.14742 14.1727 3.15781 14.1711 3.16973 14.1696L4.74588 13.9954L4.59396 15.3565L1.29319 16.1423L1.52627 15.9092C1.64627 15.7892 1.64627 15.5938 1.52627 15.4738ZM5.38742 13.788L12.2728 6.90262C12.3932 6.78224 12.3932 6.58685 12.2728 6.46685C12.1528 6.34646 11.959 6.34646 11.8386 6.46685L4.95319 13.3523L3.48396 13.5161L3.64742 12.0469L10.5332 5.16107C10.6532 5.04107 10.6532 4.84722 10.5332 4.72684C10.4128 4.60684 10.219 4.60684 10.099 4.72684L3.21204 11.6126L2.23242 11.7207L10.7509 3.20337L13.7963 6.24877L5.27935 14.7677L5.38742 13.788ZM15.1016 4.94493L12.0547 1.89799L12.4905 1.46222L15.537 4.50916L15.1016 4.94493Z" fill="black"/>
</g>
</svg>
