<svg width="16" height="27" viewBox="0 0 16 27" fill="none" xmlns="http://www.w3.org/2000/svg">
<path fill-rule="evenodd" clip-rule="evenodd" d="M7.27464 0.809134L0.799824 7.49858C0.400059 7.91212 0.400059 8.57486 0.799824 8.98801C1.19997 9.40144 1.84149 9.40144 2.24135 8.98801L6.98061 4.09158L6.98061 25.4474C6.98061 26.0322 7.43311 26.5 7.99908 26.5C8.56505 26.5 9.01783 26.0322 9.01783 25.4474L9.01783 4.09158L13.7572 8.98801C14.1569 9.40144 14.7985 9.40144 15.1982 8.98801C15.3946 8.78548 15.5 8.51249 15.5 8.2471C15.5 7.98209 15.402 7.7092 15.1982 7.50657L8.72343 0.816736C8.31631 0.395697 7.66704 0.395697 7.27464 0.809134Z" fill="white" stroke="#41D481" stroke-width="0.5"/>
</svg>
