<svg width="26" height="15" viewBox="0 0 26 15" fill="none" xmlns="http://www.w3.org/2000/svg">
<path fill-rule="evenodd" clip-rule="evenodd" d="M17.9884 1.2221C17.739 0.97578 17.739 0.577885 17.9884 0.331569C18.2355 0.0844639 18.6334 0.0844639 18.8798 0.331569L25.1837 6.63157C25.3005 6.75157 25.3684 6.91183 25.3684 7.07841C25.3684 7.08157 25.3653 7.08788 25.3653 7.09104C25.3653 7.09736 25.3684 7.10052 25.3684 7.10683C25.3684 7.31604 25.2603 7.4921 25.1 7.60578L18.8553 13.8537C18.6082 14.1008 18.2079 14.1008 17.9608 13.8537C17.7145 13.6074 17.7145 13.2095 17.9608 12.9631L23.1848 7.73525L0.737654 7.73525C0.388707 7.73525 0.105286 7.45499 0.105286 7.10683C0.105286 6.75473 0.388707 6.47446 0.737654 6.47446L23.2377 6.47446L17.9884 1.2221Z" fill="#4E72CA"/>
</svg>
